<svg width="145" height="127" viewBox="0 0 145 127" xmlns="http://www.w3.org/2000/svg" xmlns:xlink="http://www.w3.org/1999/xlink"><title>a4-1</title><defs><rect id="b" x="20.711" y="20.711" width="100" height="100" rx="50"/><filter x="-16.5%" y="-13.5%" width="133%" height="133%" filterUnits="objectBoundingBox" id="a"><feOffset dy="3" in="SourceAlpha" result="shadowOffsetOuter1"/><feGaussianBlur stdDeviation="5" in="shadowOffsetOuter1" result="shadowBlurOuter1"/><feColorMatrix values="0 0 0 0 0.929411765 0 0 0 0 0.188235294 0 0 0 0 0.521568627 0 0 0 0.611328125 0" in="shadowBlurOuter1"/></filter></defs><g fill="none" fill-rule="evenodd"><g transform="rotate(-45 56.76 80.489)"><use fill="#000" filter="url(#a)" xlink:href="#b"/><use fill="#ED3085" xlink:href="#b"/></g><g fill="#FFF" fill-rule="nonzero"><path d="M63.987 62.703a4.285 4.285 0 0 1-4.284 4.284 4.285 4.285 0 0 1-4.284-4.284 4.285 4.285 0 0 1 4.284-4.284 4.285 4.285 0 0 1 4.284 4.284M55.234 62.61c0-.093-5.588-3.072-12.292-4.003-6.611-1.023-12.196 1.769-12.196 4.003 0 2.328 5.492 4.936 12.196 4.098 6.704-.745 12.292-4.003 12.292-4.098zM64.172 62.61c0-.093 5.588-3.072 12.292-4.003 6.611-1.023 12.196 1.769 12.196 4.003 0 2.328-5.492 4.936-12.196 4.098-6.704-.745-12.292-4.003-12.292-4.098zM59.703 58.234c.093 0 3.165-5.588 4.098-12.292.93-6.611-1.768-12.196-4.098-12.196-2.235 0-4.843 5.492-4.003 12.196.745 6.704 3.91 12.292 4.003 12.292z"/><path d="M56.538 59.538c-.093.093-6.145-1.768-11.548-5.774-5.4-4.003-7.356-9.962-5.773-11.547 1.583-1.583 7.356.466 11.547 5.773 4.191 5.308 5.867 11.452 5.774 11.548zM62.868 59.538c.093 0 6.145-1.768 11.547-5.774 5.4-4.003 7.357-9.962 5.774-11.547-1.583-1.583-7.356.466-11.547 5.773-4.191 5.308-5.867 11.452-5.774 11.548zM59.703 67.172c.093 0 3.165 5.588 4.098 12.197.93 6.704-1.768 12.291-4.098 12.291-2.235 0-4.843-5.587-4.003-12.291.745-6.704 3.91-12.197 4.003-12.197zM56.538 65.868c0-.093-6.145 1.768-11.548 5.774-5.307 4.003-7.356 9.962-5.773 11.547 1.675 1.583 7.356-.466 11.547-5.774 4.284-5.307 5.867-11.451 5.774-11.547zM62.868 65.868c.093-.093 6.145 1.676 11.547 5.774 5.4 4.003 7.357 9.962 5.774 11.547-1.583 1.583-7.356-.56-11.547-5.774-4.191-5.307-5.867-11.547-5.774-11.547zM30.093 75.552c.093.186 26.445-9.124 25.419-11.174-.93-2.142-25.512 10.895-25.42 11.174zM89.313 75.552c-.093.186-26.445-9.124-25.419-11.174.93-2.142 25.512 10.895 25.42 11.174zM89.313 49.854c-.093-.186-26.445 9.032-25.419 11.174.93 2.142 25.512-10.895 25.42-11.174zM30.093 49.947c.093-.279 26.35 9.031 25.419 11.173C54.489 63.262 30 50.133 30.092 49.947zM72.273 33c-.185-.093-13.13 24.582-10.987 25.512 2.234.93 11.173-25.42 10.987-25.512zM47.133 33c.185-.093 13.036 24.674 10.895 25.512-2.142.93-11.174-25.42-10.895-25.512zM72.366 92.406c-.279.093-13.13-24.674-10.988-25.512 2.142-.93 11.174 25.42 10.988 25.512z"/><path d="M47.133 92.406c.185.093 13.13-24.674 10.987-25.512-2.234-.93-11.173 25.42-10.987 25.512z"/></g><path d="M134.69 96.743L145 95.5l-10.31-1.243a7.956 7.956 0 0 1-6.947-6.946L126.5 77l-1.243 10.31a7.956 7.956 0 0 1-6.946 6.947L108 95.5l10.31 1.243a7.956 7.956 0 0 1 6.947 6.946L126.5 114l1.243-10.31a7.956 7.956 0 0 1 6.946-6.947zM15.148 11.205L21 10.5l-5.852-.705a4.516 4.516 0 0 1-3.943-3.943L10.5 0l-.705 5.852a4.516 4.516 0 0 1-3.943 3.943L0 10.5l5.852.705a4.516 4.516 0 0 1 3.943 3.943L10.5 21l.705-5.852a4.516 4.516 0 0 1 3.943-3.943zM16.213 122.336L19 122l-2.787-.336a2.15 2.15 0 0 1-1.877-1.877L14 117l-.336 2.787a2.15 2.15 0 0 1-1.877 1.877L9 122l2.787.336a2.15 2.15 0 0 1 1.877 1.877L14 127l.336-2.787a2.15 2.15 0 0 1 1.877-1.877z" fill="#ED3085" fill-rule="nonzero"/></g></svg>