<svg width="145" height="127" viewBox="0 0 145 127" xmlns="http://www.w3.org/2000/svg" xmlns:xlink="http://www.w3.org/1999/xlink"><title>a4-2</title><defs><rect id="b" x="20.711" y="20.711" width="100" height="100" rx="50"/><filter x="-16.5%" y="-13.5%" width="133%" height="133%" filterUnits="objectBoundingBox" id="a"><feOffset dy="3" in="SourceAlpha" result="shadowOffsetOuter1"/><feGaussianBlur stdDeviation="5" in="shadowOffsetOuter1" result="shadowBlurOuter1"/><feColorMatrix values="0 0 0 0 0.929411765 0 0 0 0 0.188235294 0 0 0 0 0.521568627 0 0 0 0.611328125 0" in="shadowBlurOuter1"/></filter></defs><g fill="none" fill-rule="evenodd"><g transform="rotate(-45 56.76 80.489)"><use fill="#000" filter="url(#a)" xlink:href="#b"/><use fill="#ED3085" xlink:href="#b"/></g><path d="M83.224 60.567c-1.713-7.52-4.95-14.31-10.975-19.567-6.67-5.823-14.364-8.7-23.463-5.947-7.08 2.14-12.883 8.716-11.26 17.218.615 3.217 1.676 6.354 2.377 9.557.724 3.318.535 6.496-1.888 9.314-1.388 1.612-7.415 15.705-.14 20.01-.507-12.474 4.637-15.598 9.474-16.36 2.034-.322 4.102-.49 6.057-1.203 1.172-.428 2.174-1.064 2.527-2.228 1.02-3.369 4.414-5.136 5.748-8.275 1.966 7.773 4.657 9.378 10.151 13.854 10.101 8.228 2.107 18.191 4.245 15.185 1.887-2.655 2.627-5.597 2.233-8.834-.482-3.93-2.35-7.245-4.662-10.407-2.638-3.606-10.163-10.181-10.163-10.181-.227.16-.412.038-.588-.093-.012-.01.477-.121.588.093.002-.003.005-.003.007-.003-.002.003 0 .005-.002.01.296.196 8.677 6.612 11.433 10.653 4.146 6.078 5.996 12.463 2.15 19.383-.038.07.052.206.163.6 1.924-2.256 3.283-4.61 4.303-7.137 3.387-8.378 3.665-16.939 1.685-25.642zm-22.281 2.31c-1.991 2.184-4.108 4.167-6.88 5.427-3.147 1.43-4.973.832-6.599-2.07-.618-1.103-1.38-2.128-2.034-3.213-.801-1.329-1.203-2.745-.806-4.283.334-1.298-.062-2.431-.652-3.6-1.587-3.148-.842-7.444 1.764-10.261 1.654 8.051 7.972 12.115 14.704 15.778 1.262.685 1.569 1.05.502 2.223z" fill="#FFF" fill-rule="nonzero"/><path d="M134.69 96.743L145 95.5l-10.31-1.243a7.956 7.956 0 0 1-6.947-6.946L126.5 77l-1.243 10.31a7.956 7.956 0 0 1-6.946 6.947L108 95.5l10.31 1.243a7.956 7.956 0 0 1 6.947 6.946L126.5 114l1.243-10.31a7.956 7.956 0 0 1 6.946-6.947zM15.148 11.205L21 10.5l-5.852-.705a4.516 4.516 0 0 1-3.943-3.943L10.5 0l-.705 5.852a4.516 4.516 0 0 1-3.943 3.943L0 10.5l5.852.705a4.516 4.516 0 0 1 3.943 3.943L10.5 21l.705-5.852a4.516 4.516 0 0 1 3.943-3.943zM16.213 122.336L19 122l-2.787-.336a2.15 2.15 0 0 1-1.877-1.877L14 117l-.336 2.787a2.15 2.15 0 0 1-1.877 1.877L9 122l2.787.336a2.15 2.15 0 0 1 1.877 1.877L14 127l.336-2.787a2.15 2.15 0 0 1 1.877-1.877z" fill="#ED3085" fill-rule="nonzero"/></g></svg>