<svg width="145" height="127" viewBox="0 0 145 127" xmlns="http://www.w3.org/2000/svg" xmlns:xlink="http://www.w3.org/1999/xlink"><title>a4-3</title><defs><rect id="b" x="20.711" y="20.711" width="100" height="100" rx="50"/><filter x="-16.5%" y="-13.5%" width="133%" height="133%" filterUnits="objectBoundingBox" id="a"><feOffset dy="3" in="SourceAlpha" result="shadowOffsetOuter1"/><feGaussianBlur stdDeviation="5" in="shadowOffsetOuter1" result="shadowBlurOuter1"/><feColorMatrix values="0 0 0 0 0.929411765 0 0 0 0 0.188235294 0 0 0 0 0.521568627 0 0 0 0.611328125 0" in="shadowBlurOuter1"/></filter></defs><g fill="none" fill-rule="evenodd"><g transform="rotate(-45 56.76 80.489)"><use fill="#000" filter="url(#a)" xlink:href="#b"/><use fill="#ED3085" xlink:href="#b"/></g><g fill="#FFF" fill-rule="nonzero"><path d="M88.308 67.773c0-1.715-.228-3.316-.457-4.917.114-.571 0-1.028-.343-1.486-.114-.571-.343-1.143-.572-1.715.8-.114 1.487-.8 1.487-1.715 0-.914-.8-1.715-1.715-1.715-.458 0-.8.115-1.144.458a24.144 24.144 0 0 0-12.576-10.976c-2.516-3.43-5.831-6.174-9.718-7.889.686-.342 1.029-1.028 1.029-1.714-.114-.915-.915-1.601-1.944-1.487-.914.115-1.6.915-1.486 1.83 0 .228.114.343.114.571-.571-.228-1.029-.343-1.372-.457-.343-.8-1.257-1.258-2.172-1.03-.343.115-.572.23-.686.458-.914-.114-1.943-.228-2.858-.228-13.148.114-23.666 10.632-23.666 23.666 0 10.175 6.402 18.75 15.434 22.065a23.386 23.386 0 0 0 19.093 9.833h1.487c.686 1.029 1.829 1.83 3.2 2.172.458.115 1.03.115 1.487.115a8.07 8.07 0 0 0 3.201-.686c2.859-1.258 4.574-3.659 4.345-6.06 6.174-4.459 9.833-11.547 9.833-19.093zm-14.406-8.346a20.07 20.07 0 0 1-14.176 19.207c0-.686-.458-1.258-1.144-1.486-.914-.343-1.829.229-2.172 1.143-.114.343-.114.8 0 1.143-.915.115-1.715.23-2.63.23-2.058 0-4.001-.344-5.945-.915-1.943-2.973-3.087-6.403-3.2-10.061h.113c.23 0 .458 0 .686-.115.915-.343 1.258-1.372.915-2.286-.229-.686-.915-1.03-1.6-1.03 1.257-9.832 9.717-17.492 19.893-17.492 2.058 0 4.002.343 5.945.915 2.172 2.973 3.316 6.746 3.316 10.747zm-40.243 0c0-10.518 8.117-19.207 18.406-20.008 0 .229.115.343.229.572.343.571.915.914 1.486.914.343 0 .572-.114.915-.228.457-.229.686-.686.8-1.144a19.625 19.625 0 0 1 11.547 4.917c-.8-.115-1.486-.115-2.286-.115-9.032 0-16.807 5.03-20.809 12.462-.343-.229-.686-.343-1.028-.343-.915 0-1.715.8-1.715 1.715 0 .8.686 1.6 1.486 1.715-.229.572-.458 1.143-.572 1.715-.343.343-.457.914-.343 1.372-.343 1.6-.457 3.201-.457 4.802 0 2.972.571 5.83 1.6 8.46-5.602-3.545-9.26-9.833-9.26-16.807zm39.215 30.297c-.915.343-1.83.457-2.516.343-.343-.114-.914-.229-1.143-.8-.343-.8.572-2.287 2.172-2.973a5.178 5.178 0 0 1 1.83-.343c.228 0 .457 0 .686.114.343.115.914.229 1.143.8.343.687-.572 2.173-2.172 2.859zm4.001-5.945c-.571-.458-1.372-.915-2.286-1.03-1.487-.342-3.087-.113-4.688.573-2.286 1.028-3.773 2.743-4.23 4.687h-1.029c-5.03 0-9.718-1.944-13.262-5.03.8.114 1.486.114 2.286.114 2.973 0 5.831-.572 8.46-1.6h.229c.572 0 1.03-.344 1.372-.687.457-.228 1.029-.457 1.486-.8.115.8.8 1.486 1.715 1.486h.229c.915-.114 1.6-.915 1.486-1.943 0-.572-.343-1.03-.8-1.258 5.716-4.345 9.375-11.09 9.375-18.75 0-2.973-.572-5.83-1.601-8.46 4.802 3.087 8.232 8.232 8.918 14.177-.686 0-1.258.343-1.486 1.029-.343.914 0 1.829.914 2.286h.801c-.115 5.945-3.087 11.547-7.889 15.206zM70.93 38.848c.115 0 .343.114.572.114.686 0 1.372-.457 1.6-1.143a1.811 1.811 0 0 0-1.143-2.173 1.811 1.811 0 0 0-2.172 1.144c-.343.914.229 1.715 1.143 2.058z"/><path d="M66.814 37.933h.228c.915 0 1.6-.686 1.715-1.486.115-.915-.571-1.83-1.486-1.944-.915-.114-1.83.572-1.83 1.486-.228 1.03.458 1.83 1.373 1.944zM48.864 73.032c-.686.686-.571 1.83.114 2.401.343.343.8.457 1.144.457.457 0 .914-.228 1.257-.571.572-.686.572-1.83-.114-2.401a1.768 1.768 0 0 0-2.4.114zM48.521 69.831c-.572-.8-1.6-.915-2.4-.343-.801.572-.916 1.6-.344 2.4.343.458.915.687 1.372.687.343 0 .686-.114 1.029-.343.686-.572.8-1.6.343-2.401zM74.817 40.563c.229.114.572.228.915.228.571 0 1.143-.343 1.486-.914.457-.8.229-1.83-.572-2.401-.8-.457-1.829-.229-2.286.686-.686.8-.458 1.83.457 2.4zM83.163 49.709c.229.572.915 1.029 1.6 1.029.23 0 .458 0 .687-.114.914-.343 1.257-1.372.914-2.287-.343-.915-1.372-1.258-2.286-.915-.915.458-1.372 1.487-.915 2.287zM85.793 51.652c-.915.23-1.487 1.144-1.372 2.058.114.8.914 1.372 1.715 1.372h.343c.914-.228 1.486-1.143 1.372-2.058-.229-.914-1.144-1.486-2.058-1.372zM80.991 46.05c.343.458.915.686 1.372.686.343 0 .686-.114 1.03-.343.8-.571.914-1.6.342-2.4-.572-.8-1.6-.915-2.4-.343-.687.571-.915 1.715-.344 2.4zM79.276 43.42c.457 0 .915-.228 1.258-.57.571-.687.571-1.83-.115-2.402-.686-.571-1.829-.571-2.4.115-.572.686-.572 1.829.114 2.4.343.343.8.458 1.143.458zM70.93 77.148a1.811 1.811 0 0 0-1.143 2.172c.229.686.915 1.144 1.6 1.144.115 0 .344 0 .572-.115a1.811 1.811 0 0 0 1.143-2.172c-.228-.915-1.257-1.372-2.172-1.029zM74.817 75.433c-.8.457-1.143 1.486-.572 2.287.343.571.915.914 1.487.914.343 0 .571-.114.914-.229.8-.457 1.144-1.486.572-2.286-.572-.915-1.6-1.258-2.4-.686zM78.247 72.918c-.686.572-.8 1.715-.114 2.4.343.344.8.573 1.258.573.457 0 .8-.115 1.143-.458.686-.686.8-1.715.114-2.4-.686-.687-1.715-.801-2.4-.115zM43.033 55.082h.343c.8 0 1.486-.572 1.715-1.372.229-.915-.343-1.83-1.372-2.058-.914-.229-1.83.457-2.058 1.372-.114 1.029.458 1.944 1.372 2.058zM83.392 69.374c-.8-.572-1.83-.343-2.4.343-.573.8-.458 1.829.342 2.4.343.23.686.344 1.029.344a1.63 1.63 0 0 0 1.372-.686c.686-.686.457-1.83-.343-2.401zM44.063 50.624c.228.114.457.114.686.114.686 0 1.257-.343 1.6-1.029.343-.915 0-1.944-.914-2.287-.915-.343-1.83 0-2.287.915-.343.915.114 1.944.915 2.287zM50.122 43.42c.457 0 .8-.114 1.143-.457.686-.686.8-1.715.115-2.4-.572-.686-1.715-.8-2.401-.115-.686.686-.8 1.715-.115 2.401.343.457.8.572 1.258.572zM46.006 46.508c.343.228.686.343 1.029.343a1.63 1.63 0 0 0 1.372-.686c.572-.8.343-1.83-.343-2.401-.8-.572-1.83-.343-2.4.343-.573.8-.344 1.83.342 2.4zM54.695 75.433c-.8-.457-1.83-.229-2.286.572-.458.8-.23 1.829.571 2.286.229.114.572.229.8.229.572 0 1.144-.343 1.487-.915.571-.686.228-1.715-.572-2.172z"/></g><path d="M134.69 96.743L145 95.5l-10.31-1.243a7.956 7.956 0 0 1-6.947-6.946L126.5 77l-1.243 10.31a7.956 7.956 0 0 1-6.946 6.947L108 95.5l10.31 1.243a7.956 7.956 0 0 1 6.947 6.946L126.5 114l1.243-10.31a7.956 7.956 0 0 1 6.946-6.947zM15.148 11.205L21 10.5l-5.852-.705a4.516 4.516 0 0 1-3.943-3.943L10.5 0l-.705 5.852a4.516 4.516 0 0 1-3.943 3.943L0 10.5l5.852.705a4.516 4.516 0 0 1 3.943 3.943L10.5 21l.705-5.852a4.516 4.516 0 0 1 3.943-3.943zM16.213 122.336L19 122l-2.787-.336a2.15 2.15 0 0 1-1.877-1.877L14 117l-.336 2.787a2.15 2.15 0 0 1-1.877 1.877L9 122l2.787.336a2.15 2.15 0 0 1 1.877 1.877L14 127l.336-2.787a2.15 2.15 0 0 1 1.877-1.877z" fill="#ED3085" fill-rule="nonzero"/></g></svg>