<svg width="145" height="127" viewBox="0 0 145 127" xmlns="http://www.w3.org/2000/svg" xmlns:xlink="http://www.w3.org/1999/xlink"><title>a4-4</title><defs><rect id="b" x="20.711" y="20.711" width="100" height="100" rx="50"/><filter x="-16.5%" y="-13.5%" width="133%" height="133%" filterUnits="objectBoundingBox" id="a"><feOffset dy="3" in="SourceAlpha" result="shadowOffsetOuter1"/><feGaussianBlur stdDeviation="5" in="shadowOffsetOuter1" result="shadowBlurOuter1"/><feColorMatrix values="0 0 0 0 0.929411765 0 0 0 0 0.188235294 0 0 0 0 0.521568627 0 0 0 0.611328125 0" in="shadowBlurOuter1"/></filter></defs><g fill="none" fill-rule="evenodd"><g transform="rotate(-45 56.76 80.489)"><use fill="#000" filter="url(#a)" xlink:href="#b"/><use fill="#ED3085" xlink:href="#b"/></g><g fill="#FFF" fill-rule="nonzero"><path d="M58.175 57.669c.132.528-1.12 2.11-1.45 2.9-.33.858-.396 2.57-1.252 3.428-.46.528-1.846 1.252-1.91 1.78-.462 7.98.066 27.89.066 27.89l-6.992.003s1.45-20.57 1.648-28.419c0-.726-.989-.66-1.517-2.967-.198-.66 0-2.176-.13-2.9-.2-.858-.99-2.375-1.253-3.23-.131-.46-.528-1.715-.131-1.978.33-.198.66-.067.858.263.33.461.857 1.78 1.12 2.57.131.33.989 1.386.989 1.057.131-1.649-.66-4.353-.726-5.868 0-.33 0-.922.528-1.12.33-.131.726.067.79.397.33 1.385.727 4.023 1.056 5.735 0 .067.33.067.33-.067.198-1.12-.131-5.076 0-6.33 0-.263.263-.727.858-.727.33 0 .66.397.79 1.056.199 1.45.132 4.353.199 5.868 0 .066.262.13.33.066.396-1.318.527-3.824.659-5.143.067-.397.46-.726.726-.66.263 0 .79.132.858.791.262 1.911-.461 5.473-.461 7.253 0 .33.131 1.12.46 1.12.33 0 .727-1.648 1.121-2.307.263-.461.99-.922 1.581-.922.263-.132.724-.065.856.46v.001zM32.33 68.417c-.199.46.659 2.045.857 2.769.199.79 0 2.307.593 3.165.33.528 1.45 1.386 1.385 1.847-.659 7.121-3.098 17.472-3.098 17.472h6.001s.858-10.287 1.78-17.21c.067-.66.922-.46 1.715-2.375.263-.592.263-1.978.528-2.506.263-.726 1.187-1.978 1.517-2.704.198-.397.66-1.45.397-1.715a.599.599 0 0 0-.79.067c-.33.33-.923 1.45-1.32 2.109-.131.263-.989 1.056-.989.79.132-1.45 1.188-3.757 1.45-5.076.067-.262.132-.857-.33-1.056-.262-.131-.659 0-.79.263-.461 1.187-1.187 3.495-1.648 4.945 0 .067-.263 0-.263-.067 0-1.056.858-4.484.858-5.604 0-.263-.132-.727-.593-.791-.262-.067-.66.263-.79.858-.397 1.251-.727 3.824-.99 5.143 0 .067-.262.067-.262 0-.131-1.252.067-3.495.131-4.682 0-.397-.33-.66-.528-.727-.262 0-.726.067-.857.593-.461 1.648-.33 4.878-.66 6.462-.067.263-.262.989-.528.922-.33-.067-.396-1.582-.66-2.177-.13-.396-.725-.922-1.186-1.056-.27-.12-.732-.12-.93.34zM74.857 51.735c.198.592-1.386 2.704-1.78 3.56-.396.988-.79 3.165-1.715 4.285-.79.922-1.847 1.12-1.91 1.648-.529 9.231.13 32.44.13 32.44l-8.373.002s1.78-23.935 1.978-33.034c0-.858-1.187-.791-1.846-3.428-.199-.791 0-2.57-.132-3.364-.198-1.056-.989-2.769-1.318-3.758-.199-.46-.858-1.713-.33-2.24.263-.33.79-.132 1.056.198.397.528.922 2.045 1.386 2.9.131.198.46.857.79 1.187.263.263.461.263.528.067.132-1.91-.857-5.076-.922-6.856 0-.396-.13-.989.593-1.187.396-.131.857 0 .989.461.396 1.648.857 4.682 1.251 6.66 0 .068.397.068.397-.066.263-1.319-.067-5.934.131-7.32.067-.33.199-.922.858-.922.528 0 .858.46.922 1.251.198 1.716.198 5.077.263 6.856 0 .067.33.132.397.067.46-1.517.659-4.484.79-6 .067-.462.593-.792.858-.792.33 0 .922.199 1.056.922.263 2.241-.593 6.331-.528 8.44 0 .33.198 1.386.528 1.32.263-.068.79-1.912 1.319-2.705.33-.461.989-1.12 1.648-1.187.196-.065.855-.065.986.595z"/><path d="M72.153 63.738c-.067.46 1.251 1.91 1.648 2.506.397.726.922 2.307 1.648 3.098.66.592 1.45.66 1.517 1.056 1.386 6.99 4.023 23.275 4.023 23.275h6.331s-4.747-17.472-5.867-24.328c-.131-.66.726-.726.922-2.769.067-.592-.33-1.91-.263-2.57.067-.79.397-2.176.528-2.967.067-.397.397-1.386 0-1.78-.262-.198-.592-.067-.726.263-.263.397-.397 1.648-.66 2.308-.066.198-.198.726-.396.989-.131.198-.33.262-.33.131-.33-1.386.067-3.956-.067-5.275 0-.262 0-.726-.528-.857-.262-.067-.592.067-.659.46-.131 1.252-.067 3.627-.131 5.144 0 .067-.263.067-.263 0-.33-.989-.592-4.484-.922-5.537-.067-.199-.198-.66-.726-.593-.33.067-.528.461-.528 1.056 0 1.319.46 3.825.592 5.208 0 .067-.198.131-.263.067-.46-1.12-.922-3.364-1.251-4.484-.067-.33-.461-.528-.727-.528-.198.067-.66.263-.66.79.068 1.716 1.121 4.747 1.32 6.331 0 .263 0 1.056-.199 1.056-.198-.067-.79-1.385-1.251-1.91-.263-.33-.791-.727-1.32-.727-.264.06-.725.124-.792.587zM40.968 46.988c-.592-.989-1.78-1.385-2.835-.922-.858.397-1.319 1.252-1.319 2.11-.66-.593-1.581-.791-2.44-.397a2.198 2.198 0 0 0-1.186 2.769c0 .067.067.131.067.198 1.12 2.506 4.682 2.24 6.33 3.495.132-2.045 2.638-4.615 1.517-7.054-.07-.067-.07-.132-.134-.198zM55.935 36.967c-.397-1.12-1.517-1.78-2.705-1.517-.922.198-1.648.989-1.78 1.847-.527-.727-1.45-1.12-2.438-.922-1.188.262-1.978 1.385-1.78 2.57 0 .067 0 .131.067.263.592 2.768 4.286 3.296 5.671 4.945.593-2.045 3.694-4.155 3.034-6.923-.005-.065-.005-.196-.07-.263zM87.385 51.735c.198-.461.067-.922-.397-1.187-.33-.199-.726-.132-1.056.067.067-.33-.131-.727-.461-.922-.397-.263-.922-.132-1.252.262l-.067.067c-.592.99.397 2.177.33 3.034.726-.46 2.176-.198 2.769-1.187.134-.067.134-.067.134-.134zM81.649 40.526c.461-1.319-.067-2.769-1.386-3.428-.989-.528-2.176-.33-3.034.397.067-1.056-.528-2.11-1.517-2.638-1.251-.592-2.768-.131-3.495.99-.067.066-.067.13-.131.262-1.45 2.967 1.517 6.197 1.648 8.703 2.045-1.45 6.395-1.12 7.845-4.088.003-.064.07-.131.07-.198z"/></g><path d="M134.69 96.743L145 95.5l-10.31-1.243a7.956 7.956 0 0 1-6.947-6.946L126.5 77l-1.243 10.31a7.956 7.956 0 0 1-6.946 6.947L108 95.5l10.31 1.243a7.956 7.956 0 0 1 6.947 6.946L126.5 114l1.243-10.31a7.956 7.956 0 0 1 6.946-6.947zM15.148 11.205L21 10.5l-5.852-.705a4.516 4.516 0 0 1-3.943-3.943L10.5 0l-.705 5.852a4.516 4.516 0 0 1-3.943 3.943L0 10.5l5.852.705a4.516 4.516 0 0 1 3.943 3.943L10.5 21l.705-5.852a4.516 4.516 0 0 1 3.943-3.943zM16.213 122.336L19 122l-2.787-.336a2.15 2.15 0 0 1-1.877-1.877L14 117l-.336 2.787a2.15 2.15 0 0 1-1.877 1.877L9 122l2.787.336a2.15 2.15 0 0 1 1.877 1.877L14 127l.336-2.787a2.15 2.15 0 0 1 1.877-1.877z" fill="#ED3085" fill-rule="nonzero"/></g></svg>