<svg width="145" height="159" viewBox="0 0 145 159" xmlns="http://www.w3.org/2000/svg" xmlns:xlink="http://www.w3.org/1999/xlink"><title>a9-1</title><defs><rect id="b" x="20.711" y="45.711" width="100" height="100" rx="50"/><filter x="-16.5%" y="-13.5%" width="133%" height="133%" filterUnits="objectBoundingBox" id="a"><feOffset dy="3" in="SourceAlpha" result="shadowOffsetOuter1"/><feGaussianBlur stdDeviation="5" in="shadowOffsetOuter1" result="shadowBlurOuter1"/><feColorMatrix values="0 0 0 0 0.376470588 0 0 0 0 0.349019608 0 0 0 0 0.57254902 0 0 0 1 0" in="shadowBlurOuter1"/></filter></defs><g fill="none" fill-rule="evenodd"><g transform="rotate(-45 65.21 108.989)"><use fill="#000" filter="url(#a)" xlink:href="#b"/><use fill="#605992" xlink:href="#b"/></g><path d="M78.106 110.806c0 8.376-6.817 15.194-15 15.194-8.376 0-15-6.818-15-15.194V95.027c0-.583.195-.583.584-.583 2.534 0 5.26.975 5.26 7.207V84.509c0-1.948 1.558-2.923 3.117-2.923 1.558 0 2.922.975 2.922 2.923v11.3c0-4.09 6.04-4.09 6.04 0v2.727c0-4.09 6.04-4.09 6.04 0v3.701c0-3.895 6.039-3.895 6.039 0v8.571l-.002-.002zM71.677 80.61c.779 0 1.364.584 1.364 1.364 0 .975-.583 1.559-1.364 1.559h-6.04c-.777 0-1.558-.584-1.558-1.559 0-.778.778-1.364 1.559-1.364h6.04zm-22.987 0c.778 0 1.364.584 1.364 1.364 0 .975-.583 1.559-1.364 1.559h-6.04c-.974 0-1.558-.584-1.558-1.559 0-.778.584-1.364 1.559-1.364h6.04zm15.584-3.506a1.53 1.53 0 0 1-2.142 0 1.53 1.53 0 0 1 0-2.142l4.09-4.287c.778-.584 1.558-.584 2.142 0a1.53 1.53 0 0 1 0 2.142l-4.09 4.287zm-12.077-2.142a1.53 1.53 0 0 1 0 2.142 1.53 1.53 0 0 1-2.143 0l-4.286-4.287a1.53 1.53 0 0 1 0-2.142 1.53 1.53 0 0 1 2.142 0l4.287 4.287zm6.429-1.364c0 .778-.584 1.364-1.559 1.364a1.332 1.332 0 0 1-1.364-1.364v-6.04c0-.975.584-1.559 1.364-1.559.975 0 1.559.584 1.559 1.56v6.039z" fill="#9E98CB" fill-rule="nonzero"/><path d="M134.69 128.743L145 127.5l-10.31-1.243a7.956 7.956 0 0 1-6.947-6.946L126.5 109l-1.243 10.31a7.956 7.956 0 0 1-6.946 6.947L108 127.5l10.31 1.243a7.956 7.956 0 0 1 6.947 6.946L126.5 146l1.243-10.31a7.956 7.956 0 0 1 6.946-6.947zM15.148 43.205L21 42.5l-5.852-.705a4.516 4.516 0 0 1-3.943-3.943L10.5 32l-.705 5.852a4.516 4.516 0 0 1-3.943 3.943L0 42.5l5.852.705a4.516 4.516 0 0 1 3.943 3.943L10.5 53l.705-5.852a4.516 4.516 0 0 1 3.943-3.943zM16.213 154.336L19 154l-2.787-.336a2.15 2.15 0 0 1-1.877-1.877L14 149l-.336 2.787a2.15 2.15 0 0 1-1.877 1.877L9 154l2.787.336a2.15 2.15 0 0 1 1.877 1.877L14 159l.336-2.787a2.15 2.15 0 0 1 1.877-1.877z" fill="#ED3085" fill-rule="nonzero"/><path d="M67.416 8.763c0 2.02-.398 3.563-1.196 4.633-.797 1.07-1.965 1.604-3.502 1.604-1.519 0-2.68-.525-3.484-1.574-.803-1.05-1.215-2.554-1.234-4.512V6.227c0-2.04.404-3.587 1.21-4.643C60.019.528 61.18 0 62.7 0c1.518 0 2.679.523 3.483 1.57.804 1.045 1.215 2.548 1.234 4.506v2.687zm-2.765-2.947c0-1.21-.158-2.091-.474-2.643-.316-.551-.809-.827-1.478-.827-.651 0-1.131.263-1.44.787-.31.525-.474 1.346-.493 2.462v3.55c0 1.19.154 2.073.464 2.651.31.579.805.868 1.488.868.676 0 1.164-.278 1.464-.832.3-.555.456-1.404.469-2.547v-3.47zM76 14.799h-2.766V3.63l-3.301 1.074V2.346L75.703.18H76V14.8z" fill="#605992"/></g></svg>