<svg width="145" height="159" viewBox="0 0 145 159" xmlns="http://www.w3.org/2000/svg" xmlns:xlink="http://www.w3.org/1999/xlink"><title>a9-2</title><defs><rect id="b" x="21" y="46" width="100" height="100" rx="50"/><filter x="-16.5%" y="-13.5%" width="133%" height="133%" filterUnits="objectBoundingBox" id="a"><feOffset dy="3" in="SourceAlpha" result="shadowOffsetOuter1"/><feGaussianBlur stdDeviation="5" in="shadowOffsetOuter1" result="shadowBlurOuter1"/><feColorMatrix values="0 0 0 0 0.376470588 0 0 0 0 0.349019608 0 0 0 0 0.57254902 0 0 0 1 0" in="shadowBlurOuter1"/></filter></defs><g fill="none" fill-rule="evenodd"><g transform="rotate(-45 65.5 109.278)"><use fill="#000" filter="url(#a)" xlink:href="#b"/><use fill="#605992" xlink:href="#b"/></g><path d="M59.554 82.694c-.297 0-.587.029-.88.046v5.391c.295-.027.577-.09.88-.09 5.352 0 9.69 4.39 9.69 9.804 0 .932-.17 1.817-.41 2.672h5.45c.152-.87.246-1.76.246-2.672 0-8.367-6.704-15.151-14.976-15.151zm0-10.694c-.297 0-.585.036-.88.044v5.348c.293-.013.583-.044.88-.044 11.191 0 20.264 9.175 20.264 20.497 0 .909-.082 1.797-.193 2.672h5.34c.09-.877.136-1.77.136-2.672C85.1 83.571 73.663 72 59.554 72zm9.288 36.388c-2.933-1.136-5.71-2.594-8.933.445-1.986 1.878-3.424 1.674-4.725.974-1.3-.698-9.3-8.966-10.395-11.67-1.09-2.702-.502-3.068 0-3.889.503-.819 3.985-2.734 1.89-8.75-2.097-6.017-3.743-10.548-12.285 0-.886 1.092 0 5.834 0 5.834s6.022 19.916 26.46 28.2c3.172 1.284 10.337-.75 13.23-5.835 1.419-2.49-.639-3.529-5.243-5.309z" fill="#9E98CB" fill-rule="nonzero"/><path d="M134.69 128.743L145 127.5l-10.31-1.243a7.956 7.956 0 0 1-6.947-6.946L126.5 109l-1.243 10.31a7.956 7.956 0 0 1-6.946 6.947L108 127.5l10.31 1.243a7.956 7.956 0 0 1 6.947 6.946L126.5 146l1.243-10.31a7.956 7.956 0 0 1 6.946-6.947zM15.148 43.205L21 42.5l-5.852-.705a4.516 4.516 0 0 1-3.943-3.943L10.5 32l-.705 5.852a4.516 4.516 0 0 1-3.943 3.943L0 42.5l5.852.705a4.516 4.516 0 0 1 3.943 3.943L10.5 53l.705-5.852a4.516 4.516 0 0 1 3.943-3.943zM16.213 154.336L19 154l-2.787-.336a2.15 2.15 0 0 1-1.877-1.877L14 149l-.336 2.787a2.15 2.15 0 0 1-1.877 1.877L9 154l2.787.336a2.15 2.15 0 0 1 1.877 1.877L14 159l.336-2.787a2.15 2.15 0 0 1 1.877-1.877z" fill="#ED3085" fill-rule="nonzero"/><path d="M66.492 8.763c0 2.02-.402 3.563-1.206 4.633-.804 1.07-1.98 1.604-3.53 1.604-1.53 0-2.701-.525-3.512-1.574-.81-1.05-1.225-2.554-1.244-4.512V6.227c0-2.04.407-3.587 1.22-4.643C59.034.528 60.206 0 61.736 0s2.701.523 3.512 1.57c.81 1.045 1.225 2.548 1.244 4.506v2.687zm-2.788-2.947c0-1.21-.159-2.091-.477-2.643-.319-.551-.815-.827-1.49-.827-.657 0-1.14.263-1.452.787-.312.525-.478 1.346-.497 2.462v3.55c0 1.19.156 2.073.468 2.651.312.579.812.868 1.5.868.681 0 1.173-.278 1.476-.832.302-.555.46-1.404.472-2.547v-3.47zM78 14.799h-9.627v-1.985l4.543-5.033c.624-.709 1.086-1.327 1.385-1.855.299-.528.448-1.03.448-1.504 0-.649-.157-1.158-.472-1.53-.316-.37-.766-.556-1.351-.556-.63 0-1.127.226-1.49.677-.364.451-.545 1.044-.545 1.78h-2.798c0-.89.204-1.701.613-2.437a4.397 4.397 0 0 1 1.731-1.73C71.183.21 72.03 0 72.974 0c1.447 0 2.571.361 3.372 1.083.8.722 1.2 1.741 1.2 3.058 0 .722-.18 1.457-.54 2.206-.36.749-.977 1.62-1.852 2.617l-3.193 3.5H78v2.335z" fill="#605992"/></g></svg>