<svg width="145" height="159" viewBox="0 0 145 159" xmlns="http://www.w3.org/2000/svg" xmlns:xlink="http://www.w3.org/1999/xlink"><title>a9-3</title><defs><rect id="b" x="20.711" y="45.711" width="100" height="100" rx="50"/><filter x="-16.5%" y="-13.5%" width="133%" height="133%" filterUnits="objectBoundingBox" id="a"><feOffset dy="3" in="SourceAlpha" result="shadowOffsetOuter1"/><feGaussianBlur stdDeviation="5" in="shadowOffsetOuter1" result="shadowBlurOuter1"/><feColorMatrix values="0 0 0 0 0.376470588 0 0 0 0 0.349019608 0 0 0 0 0.57254902 0 0 0 1 0" in="shadowBlurOuter1"/></filter></defs><g fill="none" fill-rule="evenodd"><g transform="rotate(-45 65.21 108.989)"><use fill="#000" filter="url(#a)" xlink:href="#b"/><use fill="#605992" xlink:href="#b"/></g><path d="M87.11 102.943v-5.208l-24.307-9.027.004-18.75a3.483 3.483 0 0 0-3.474-3.473 3.483 3.483 0 0 0-3.473 3.473v18.75l-24.303 9.027v5.208l24.306-4.515-.003 16.67-8.682 5.209v5.208l12.152-3.473 12.152 3.473v-5.208l-8.682-5.209V98.432l24.31 4.511z" fill="#9E98CB" fill-rule="nonzero"/><path d="M134.69 128.743L145 127.5l-10.31-1.243a7.956 7.956 0 0 1-6.947-6.946L126.5 109l-1.243 10.31a7.956 7.956 0 0 1-6.946 6.947L108 127.5l10.31 1.243a7.956 7.956 0 0 1 6.947 6.946L126.5 146l1.243-10.31a7.956 7.956 0 0 1 6.946-6.947zM15.148 43.205L21 42.5l-5.852-.705a4.516 4.516 0 0 1-3.943-3.943L10.5 32l-.705 5.852a4.516 4.516 0 0 1-3.943 3.943L0 42.5l5.852.705a4.516 4.516 0 0 1 3.943 3.943L10.5 53l.705-5.852a4.516 4.516 0 0 1 3.943-3.943zM16.213 154.336L19 154l-2.787-.336a2.15 2.15 0 0 1-1.877-1.877L14 149l-.336 2.787a2.15 2.15 0 0 1-1.877 1.877L9 154l2.787.336a2.15 2.15 0 0 1 1.877 1.877L14 159l.336-2.787a2.15 2.15 0 0 1 1.877-1.877z" fill="#ED3085" fill-rule="nonzero"/><path d="M66.589 8.763c0 2.02-.406 3.563-1.218 4.633C64.559 14.466 63.37 15 61.804 15c-1.546 0-2.728-.525-3.547-1.574-.818-1.05-1.238-2.554-1.257-4.512V6.227c0-2.04.41-3.587 1.233-4.643C59.055.528 60.239 0 61.785 0c1.546 0 2.728.523 3.547 1.57.818 1.045 1.237 2.548 1.257 4.506v2.687zm-2.816-2.947c0-1.21-.161-2.091-.483-2.643-.321-.551-.823-.827-1.505-.827-.663 0-1.152.263-1.467.787-.315.525-.482 1.346-.502 2.462v3.55c0 1.19.158 2.073.473 2.651.315.579.82.868 1.515.868.689 0 1.186-.278 1.491-.832.305-.555.465-1.404.478-2.547v-3.47zm7.581.4h1.5c.715 0 1.245-.183 1.59-.55.343-.369.516-.857.516-1.465 0-.588-.17-1.046-.512-1.373-.341-.328-.81-.492-1.408-.492-.54 0-.99.152-1.355.456-.363.305-.545.7-.545 1.189h-2.817c0-.762.2-1.446.6-2.05.4-.606.958-1.079 1.676-1.42C71.317.171 72.108 0 72.972 0c1.5 0 2.676.37 3.527 1.108.851.739 1.277 1.756 1.277 3.053 0 .669-.198 1.284-.595 1.845a3.885 3.885 0 0 1-1.559 1.293c.8.295 1.395.736 1.788 1.324.393.588.59 1.283.59 2.086 0 1.296-.46 2.336-1.379 3.118-.92.782-2.136 1.173-3.65 1.173-1.416 0-2.574-.384-3.473-1.153-.9-.769-1.35-1.785-1.35-3.048h2.816c0 .548.2.996.6 1.343.4.348.891.522 1.476.522.67 0 1.194-.182 1.574-.547.38-.364.57-.847.57-1.449 0-1.457-.78-2.185-2.339-2.185h-1.49V6.217z" fill="#605992"/></g></svg>