<?xml version="1.0" encoding="UTF-8"?>
<svg width="145px" height="159px" viewBox="0 0 145 159" version="1.1" xmlns="http://www.w3.org/2000/svg" xmlns:xlink="http://www.w3.org/1999/xlink">
    <!-- Generator: Sketch 49 (51002) - http://www.bohemiancoding.com/sketch -->
    <title>a9-4</title>
    <desc>Created with Sketch.</desc>
    <defs>
        <rect id="path-1" x="21" y="46" width="100" height="100" rx="50"></rect>
        <filter x="-16.5%" y="-13.5%" width="133.0%" height="133.0%" filterUnits="objectBoundingBox" id="filter-2">
            <feOffset dx="0" dy="3" in="SourceAlpha" result="shadowOffsetOuter1"></feOffset>
            <feGaussianBlur stdDeviation="5" in="shadowOffsetOuter1" result="shadowBlurOuter1"></feGaussianBlur>
            <feColorMatrix values="0 0 0 0 0.376470588   0 0 0 0 0.349019608   0 0 0 0 0.57254902  0 0 0 1 0" type="matrix" in="shadowBlurOuter1"></feColorMatrix>
        </filter>
    </defs>
    <g id="pr" stroke="none" stroke-width="1" fill="none" fill-rule="evenodd">
        <g id="twisty_petz_design" transform="translate(-1085.000000, -7287.000000)">
            <g id="art9" transform="translate(160.000000, 7147.000000)">
                <g id="content" transform="translate(0.000000, 140.000000)">
                    <g id="item-4" transform="translate(864.000000, 0.000000)">
                        <g id="a9-4" transform="translate(50.000000, 0.000000)">
                            <g id="Rectangle-8" transform="translate(71.000000, 96.000000) rotate(-45.000000) translate(-71.000000, -96.000000) ">
                                <use fill="black" fill-opacity="1" filter="url(#filter-2)" xlink:href="#path-1"></use>
                                <use fill="#605992" fill-rule="evenodd" xlink:href="#path-1"></use>
                            </g>
                            <g id="np_payment_570299_000000" transform="translate(45.000000, 66.000000)" fill="#9E98CB" fill-rule="nonzero">
                                <path d="M1.802,56.302 C2.01554,58.3827333 3.89053333,59.9088 5.97126667,59.6952 L28.8746,57.3462667 C30.9553333,57.1327267 32.4814,55.2577333 32.2678,53.177 L31.5933333,46.5988667 L1.12733333,49.7238667 L1.802,56.302 Z" id="Shape"></path>
                                <path d="M30.9193333,40.0233333 C30.7057933,37.9426 28.8308,36.4165333 26.7500667,36.6301333 L3.84673333,38.9790667 C1.766,39.1926067 0.239933333,41.0676 0.453533333,43.1483333 L0.60978,44.6718 L31.07578,41.5468 L30.9193333,40.0233333 Z" id="Shape"></path>
                                <path d="M22.284,21.6146667 C22.284,21.6146667 27.896,37.094 51.568,37.094 L41.6826667,50.2193333 C41.6826667,50.2193333 36.6019333,49.6802733 33.998,48.7349333 L32.4798,37.4616 C32.4798,37.4616 31.5553333,33.6803333 25.9433333,34.2897333 C20.3313333,34.8991067 13.0113333,35.3886667 13.0113333,35.3886667 L22.284,21.6146667 Z" id="Shape"></path>
                                <path d="M45.3386667,22.88 C44.7162733,19.3982 41.6746,16.755 38.016,16.755 C33.9066,16.755 30.5733333,20.0883333 30.5733333,24.1976667 C30.5733333,28.1091333 33.5889333,31.3123333 37.422,31.6143333 C37.6173133,31.629958 37.8152267,31.6403753 38.0157533,31.6403753 C42.1251533,31.6403753 45.45842,28.307042 45.45842,24.1977087 C45.455816,23.7471887 45.4141493,23.3071087 45.3386267,22.8799753 L45.3386667,22.88 Z M32.9086667,24.1977333 C32.9086667,21.1378667 35.3904667,18.6560667 38.4503333,18.6560667 C40.1352,18.6560667 41.6430667,19.4086667 42.6586667,20.5935333 C41.9086667,20.2628067 41.0779333,20.0805133 40.2055333,20.0805133 C36.8331333,20.0805133 34.1014,22.8123133 34.1014,26.1846467 C34.1014,26.79402 34.1925467,27.37998 34.3566067,27.9372467 C33.45814,26.9502467 32.9086733,25.63778 32.9086733,24.1976467 L32.9086667,24.1977333 Z" id="Shape"></path>
                                <path d="M14.8906667,22.294 C16.9792,20.9268 17.8516,18.2236667 16.8412,15.8460667 C15.7058,13.1768 12.6198667,11.9372 9.9532,13.0726 C7.41413333,14.1533333 6.16933333,16.9970667 7.03393333,19.57 C7.07820467,19.7002067 7.12508,19.83302 7.18237333,19.9632267 C8.31777333,22.6324933 11.4037067,23.8720933 14.0703733,22.7366933 C14.3594333,22.6116933 14.6328733,22.4632533 14.8907067,22.2939867 L14.8906667,22.294 Z M10.5964,14.5906667 C12.5834,13.7443333 14.8802667,14.6687933 15.7266,16.6558 C16.1927467,17.7495333 16.1198267,18.9344667 15.6328533,19.924 C15.6380613,19.3458733 15.5286867,18.7573333 15.2891067,18.1896 C14.35684,16.0021333 11.8281733,14.9838667 9.63804,15.9161333 C9.24220667,16.0854067 8.88544,16.30676 8.57290667,16.5671733 C8.96353333,15.7077733 9.66144,14.98904 10.5963733,14.59064 L10.5964,14.5906667 Z" id="Shape"></path>
                                <path d="M31.8386667,7.82 C32.8673333,5.54653333 32.1537733,2.79393333 30.0261333,1.333 C27.6355333,-0.3102 24.3672667,0.296533333 22.7241333,2.68713333 C21.1616,4.9606 21.6356,8.02826667 23.7449333,9.73646667 C23.8517067,9.82500667 23.96368,9.90834 24.0808733,9.98907333 C26.4714733,11.6322733 29.73974,11.02554 31.3828733,8.63494 C31.5599533,8.37192 31.7136,8.09848 31.8386,7.81980667 L31.8386667,7.82 Z M24.0833333,3.62206667 C25.3072667,1.8408 27.7396,1.39026667 29.5208,2.61426667 C30.5,3.28613333 31.0754667,4.3278 31.1926667,5.42153333 C30.88798,4.92934667 30.4791333,4.49186667 29.9713333,4.14286667 C28.0104,2.79653333 25.3307333,3.29393333 23.9817333,5.25486667 C23.7395467,5.60903333 23.5572533,5.98666667 23.4322533,6.37466667 C23.3046467,5.4424 23.5077733,4.458 24.0832933,3.62206667 L24.0833333,3.62206667 Z" id="Shape"></path>
                            </g>
                            <path d="M145.689454,128.742553 L156,127.5 L145.689454,126.257447 C142.05027,125.819267 139.180717,122.949519 138.742553,119.310546 L137.5,109 L136.257447,119.310546 C135.819267,122.94973 132.949519,125.819283 129.310546,126.257447 L119,127.5 L129.310546,128.742553 C132.94973,129.180733 135.819283,132.050481 136.257447,135.689454 L137.5,146 L138.742553,135.689454 C139.180733,132.05027 142.050481,129.180717 145.689454,128.742553 Z" id="Shape" fill="#ED3085" fill-rule="nonzero"></path>
                            <path d="M26.1480682,43.2052328 L32,42.5 L26.1480682,41.7947672 C24.0825856,41.5460706 22.4539205,39.9172948 22.2052328,37.8519318 L21.5,32 L20.7947672,37.8519318 C20.5460706,39.9174144 18.9172948,41.5460795 16.8519318,41.7947672 L11,42.5 L16.8519318,43.2052328 C18.9174144,43.4539294 20.5460795,45.0827052 20.7947672,47.1480682 L21.5,53 L22.2052328,47.1480682 C22.4539294,45.0825856 24.0827052,43.4539205 26.1480682,43.2052328 Z" id="Shape-Copy-3" fill="#ED3085" fill-rule="nonzero"></path>
                            <path d="M27.2133658,154.335825 L30,154 L27.2133658,153.664175 C26.2298027,153.545748 25.4542478,152.77014 25.3358251,151.786634 L25,149 L24.6641749,151.786634 C24.5457479,152.770197 23.7701404,153.545752 22.7866342,153.664175 L20,154 L22.7866342,154.335825 C23.7701973,154.454252 24.5457522,155.22986 24.6641749,156.213366 L25,159 L25.3358251,156.213366 C25.4542521,155.229803 26.2298596,154.454248 27.2133658,154.335825 Z" id="Shape-Copy-4" fill="#ED3085" fill-rule="nonzero"></path>
                            <path d="M77.3969986,8.76336898 C77.3969986,10.7820957 76.9990945,12.3261979 76.2032742,13.3957219 C75.407454,14.465246 74.2423906,15 72.7080491,15 C71.1928073,15 70.0341104,14.4752726 69.2319236,13.4258021 C68.4297368,12.3763317 68.0190997,10.872336 68,8.91377005 L68,6.22660428 C68,4.18782403 68.402679,2.64037961 69.2080491,1.5842246 C70.0134192,0.528069586 71.1737077,0 72.6889495,0 C74.2041913,0 75.3628882,0.523056267 76.165075,1.56918449 C76.9672619,2.61531272 77.3778989,4.11763727 77.3969986,6.07620321 L77.3969986,8.76336898 Z M74.6371078,5.81550802 C74.6371078,4.60560892 74.4795377,3.72493591 74.1643929,3.17346257 C73.8492481,2.62198922 73.3574385,2.34625668 72.6889495,2.34625668 C72.0395602,2.34625668 71.5604836,2.60862037 71.2517053,3.13335561 C70.9429271,3.65809086 70.7789905,4.47860404 70.7598909,5.59491979 L70.7598909,9.14438503 C70.7598909,10.3342305 70.9142777,11.2182458 71.2230559,11.7964572 C71.5318342,12.3746687 72.026827,12.6637701 72.7080491,12.6637701 C73.3829047,12.6637701 73.8699394,12.3863664 74.1691678,11.8315508 C74.4683962,11.2767352 74.6243747,10.4278132 74.6371078,9.28475936 L74.6371078,5.81550802 Z M87.4242838,9.30481283 L89,9.30481283 L89,11.6410428 L87.4242838,11.6410428 L87.4242838,14.7994652 L84.6643929,14.7994652 L84.6643929,11.6410428 L78.9631651,11.6410428 L78.8390177,9.81617647 L84.6357435,0.200534759 L87.4242838,0.200534759 L87.4242838,9.30481283 Z M81.5893588,9.30481283 L84.6643929,9.30481283 L84.6643929,4.15106952 L84.4829468,4.48195187 L81.5893588,9.30481283 Z" id="04" fill="#605992"></path>
                        </g>
                    </g>
                </g>
            </g>
        </g>
    </g>
</svg>