<svg width="543" height="103" viewBox="0 0 543 103" xmlns="http://www.w3.org/2000/svg"><title>h-logo</title><g fill="none" fill-rule="evenodd"><path d="M532.69 19.743L543 18.5l-10.31-1.243a7.956 7.956 0 0 1-6.947-6.946L524.5 0l-1.243 10.31a7.956 7.956 0 0 1-6.946 6.947L506 18.5l10.31 1.243a7.956 7.956 0 0 1 6.947 6.946L524.5 37l1.243-10.31a7.956 7.956 0 0 1 6.946-6.947zM212.69 60.743L223 59.5l-10.31-1.243a7.956 7.956 0 0 1-6.947-6.946L204.5 41l-1.243 10.31a7.956 7.956 0 0 1-6.946 6.947L186 59.5l10.31 1.243a7.956 7.956 0 0 1 6.947 6.946L204.5 78l1.243-10.31a7.956 7.956 0 0 1 6.946-6.947zM343.755 90.873L351 90l-7.245-.873a5.59 5.59 0 0 1-4.882-4.882L338 77l-.873 7.245a5.59 5.59 0 0 1-4.882 4.882L325 90l7.245.873a5.59 5.59 0 0 1 4.882 4.882L338 103l.873-7.245a5.59 5.59 0 0 1 4.882-4.882z" fill="#ED3085" fill-rule="nonzero"/><path d="M47.48 37.548H29.626v48.65h-12.01v-48.65H0v-9.746h47.48v9.746zm52.245 31.805l7.847-41.55h11.97l-12.93 58.395H94.52l-9.488-39.064-9.488 39.064h-12.09L50.522 27.802h11.97l7.887 41.47 9.608-41.47h10.17l9.567 41.55zM138.8 86.198h-12.01V27.802h12.01v58.396zm41.355-15.321c0-2.273-.8-4.017-2.402-5.234-1.601-1.217-4.484-2.5-8.647-3.85-4.164-1.35-7.46-2.68-9.889-3.99-6.619-3.584-9.928-8.41-9.928-14.48 0-3.155.887-5.969 2.662-8.442s4.324-4.405 7.647-5.795c3.322-1.39 7.052-2.086 11.19-2.086 4.163 0 7.873.755 11.129 2.266 3.256 1.51 5.785 3.643 7.586 6.397 1.802 2.754 2.703 5.882 2.703 9.385h-12.01c0-2.674-.841-4.753-2.523-6.237-1.681-1.483-4.043-2.225-7.086-2.225-2.936 0-5.218.621-6.846 1.865-1.628 1.243-2.442 2.88-2.442 4.913 0 1.898.954 3.489 2.863 4.772 1.908 1.284 4.717 2.487 8.427 3.61 6.832 2.059 11.81 4.612 14.933 7.66 3.122 3.049 4.684 6.845 4.684 11.39 0 5.054-1.909 9.018-5.725 11.893-3.817 2.874-8.955 4.311-15.414 4.311-4.483 0-8.567-.822-12.25-2.467-3.683-1.644-6.492-3.897-8.427-6.758-1.935-2.86-2.903-6.176-2.903-9.946h12.05c0 6.444 3.844 9.666 11.53 9.666 2.856 0 5.085-.582 6.686-1.745 1.602-1.163 2.402-2.787 2.402-4.873zm64.055-33.329h-17.855v48.65h-12.01v-48.65h-17.616v-9.746h47.481v9.746zm26.943 16.564l12.13-26.31h13.132l-19.137 37.22v21.176h-12.21V65.02L245.93 27.802h13.17l12.051 26.31zm63.014 11.511v20.575h-12.01V27.802h22.74c4.376 0 8.226.802 11.55 2.407 3.322 1.604 5.877 3.883 7.666 6.838 1.788 2.954 2.682 6.317 2.682 10.087 0 5.722-1.955 10.234-5.865 13.536-3.91 3.302-9.321 4.953-16.234 4.953h-10.529zm0-9.746h10.73c3.175 0 5.597-.749 7.265-2.246 1.669-1.497 2.503-3.636 2.503-6.417 0-2.861-.841-5.174-2.523-6.939-1.681-1.764-4.003-2.673-6.966-2.727h-11.009v18.329zm75.945 5.013h-23.06v15.642h27.063v9.666h-39.073V27.802h38.993v9.746h-26.983v13.917h23.06v9.425zm54.927-23.342h-17.855v48.65h-12.01v-48.65h-17.616v-9.746h47.481v9.746zm19.577 38.984H514v9.666h-44.398v-7.059l28.825-41.59h-28.785v-9.747h43.717v6.899l-28.744 41.831z" fill="#000"/></g></svg>