<svg width="64" height="64" viewBox="0 0 64 64" xmlns="http://www.w3.org/2000/svg"><title>hi-1</title><g fill="none" fill-rule="evenodd"><path d="M32 64c17.673 0 32-14.327 32-32C64 14.327 49.673 0 32 0 14.327 0 0 14.327 0 32c0 17.673 14.327 32 32 32z" fill="#FFF"/><g fill="#ED3085" fill-rule="nonzero"><path d="M20.491 34.526a2.245 2.245 0 1 1-4.49.001 2.245 2.245 0 0 1 4.49 0"/><path d="M22.175 39.017a2.246 2.246 0 1 1-4.492 0 2.246 2.246 0 0 1 4.492 0M26.667 43.227a2.527 2.527 0 1 1-5.054 0 2.527 2.527 0 0 1 5.054 0M31.72 45.474a2.526 2.526 0 1 1-5.054 0 2.526 2.526 0 0 1 5.053 0M48.561 34.526a2.246 2.246 0 1 1-4.492 0 2.246 2.246 0 0 1 4.492 0M46.298 39.85a2.236 2.236 0 0 1-2.498 1.957 2.236 2.236 0 0 1-1.958-2.498 2.236 2.236 0 0 1 2.499-1.958c1.236.13 2.112 1.262 1.957 2.498zM42.947 43.789a2.526 2.526 0 1 1-5.052.001 2.526 2.526 0 0 1 5.052-.001M37.333 45.474a2.526 2.526 0 1 1-5.052 0 2.526 2.526 0 0 1 5.052 0M20.491 29.473a2.246 2.246 0 1 1-4.49.001 2.246 2.246 0 0 1 4.49-.001M22.175 24.982a2.245 2.245 0 1 1-4.49.001 2.245 2.245 0 0 1 4.49-.001M26.667 20.771a2.527 2.527 0 1 1-5.054 0 2.527 2.527 0 0 1 5.054 0M31.72 18.526a2.526 2.526 0 1 1-5.054 0 2.526 2.526 0 0 1 5.053 0M48.561 29.474a2.245 2.245 0 1 1-4.49 0 2.245 2.245 0 0 1 4.49 0M46.316 24.42a2.245 2.245 0 1 1-4.491.002 2.245 2.245 0 0 1 4.49-.002M42.947 20.773a2.526 2.526 0 1 1-5.053-.001 2.526 2.526 0 0 1 5.053 0M37.333 18.526a2.526 2.526 0 1 1-5.052 0 2.526 2.526 0 0 1 5.052 0"/></g></g></svg>