<svg width="64" height="64" viewBox="0 0 64 64" xmlns="http://www.w3.org/2000/svg"><title>hi-2</title><g fill="none" fill-rule="evenodd"><path d="M32 64c17.673 0 32-14.327 32-32C64 14.327 49.673 0 32 0 14.327 0 0 14.327 0 32c0 17.673 14.327 32 32 32z" fill="#FFF"/><g fill="#ED3085" fill-rule="nonzero"><path d="M17.763 32.913a.646.646 0 0 0-.681.585c-.35 3.55.779 7.141 3.014 9.61 2.165 2.388 5.217 3.653 8.827 3.653.455 0 .924-.02 1.407-.061a.65.65 0 0 0 .592-.587c.327-3.376-.544-6.371-2.52-8.659-2.32-2.694-6.098-4.307-10.64-4.54zM47.542 33.498a.65.65 0 0 0-.68-.585c-4.538.234-8.32 1.847-10.641 4.536-1.975 2.292-2.847 5.288-2.52 8.661.029.313.279.56.593.585.483.04.952.061 1.407.061 3.608 0 6.662-1.262 8.827-3.652 2.237-2.463 3.363-6.056 3.014-9.606zM40.954 26.204c0-4.944-4.021-8.965-8.964-8.965-4.943 0-8.965 4.021-8.965 8.965.001 4.944 4.02 8.966 8.966 8.966 4.941.001 8.962-4.022 8.962-8.966z"/></g></g></svg>