<svg width="64" height="64" viewBox="0 0 64 64" xmlns="http://www.w3.org/2000/svg"><title>hi-3</title><g fill="none" fill-rule="evenodd"><path d="M32 64c17.673 0 32-14.327 32-32C64 14.327 49.673 0 32 0 14.327 0 0 14.327 0 32c0 17.673 14.327 32 32 32z" fill="#FFF"/><path d="M46.754 29.718c-1.077-4.732-3.115-9.005-6.906-12.313-4.198-3.665-9.039-5.475-14.765-3.742-4.456 1.346-8.108 5.484-7.086 10.834.387 2.025 1.055 3.999 1.496 6.015.455 2.088.337 4.088-1.188 5.86-.874 1.015-4.667 9.884-.088 12.593-.32-7.85 2.917-9.815 5.961-10.295 1.28-.203 2.582-.308 3.812-.757.738-.27 1.368-.67 1.59-1.402.642-2.12 2.778-3.232 3.618-5.208 1.237 4.892 2.93 5.902 6.388 8.719 6.356 5.178 1.325 11.447 2.67 9.556 1.189-1.671 1.654-3.522 1.406-5.56-.303-2.473-1.478-4.559-2.934-6.549-1.66-2.27-6.395-6.407-6.395-6.407-.143.1-.26.025-.37-.058-.008-.007.3-.076.37.058l.005-.001c-.002.001 0 .003-.002.006.186.123 5.46 4.16 7.195 6.704 2.61 3.825 3.773 7.842 1.353 12.197-.024.044.032.13.102.378a16.045 16.045 0 0 0 2.708-4.491c2.132-5.272 2.307-10.66 1.06-16.137zm-14.021 1.454c-1.253 1.374-2.585 2.622-4.33 3.415-1.98.9-3.13.524-4.152-1.303-.389-.694-.869-1.339-1.28-2.021-.504-.837-.757-1.728-.508-2.696.211-.816-.039-1.53-.41-2.265-.998-1.981-.53-4.684 1.11-6.457 1.041 5.066 5.017 7.624 9.254 9.929.794.43.987.66.316 1.398z" fill="#ED3085" fill-rule="nonzero"/></g></svg>