<svg width="64" height="64" viewBox="0 0 64 64" xmlns="http://www.w3.org/2000/svg"><title>hi-4</title><g fill="none" fill-rule="evenodd"><path d="M32 64c17.673 0 32-14.327 32-32C64 14.327 49.673 0 32 0 14.327 0 0 14.327 0 32c0 17.673 14.327 32 32 32z" fill="#FFF"/><path d="M25.214 19C20.32 19 17 23.014 17 28.122 17 36.878 23.429 40.527 32 46c8.571-5.473 15-9.122 15-17.878C47 23.014 43.68 19 38.786 19c-3.15 0-5.74 1.824-6.786 2.919C30.954 20.824 28.364 19 25.214 19z" fill="#ED3085" fill-rule="nonzero"/></g></svg>